<svg width="2326" height="698" viewBox="0 0 2326 698" fill="none" xmlns="http://www.w3.org/2000/svg">
<path fill-rule="evenodd" clip-rule="evenodd" d="M324.812 0.776427C231.254 6.76743 141.802 52.1984 81.3734 124.415C40.9134 172.766 14.7834 229.244 4.44842 290.682C0.635422 313.352 -0.475576 330.85 0.174424 358C0.903424 388.449 3.58042 408.712 10.4974 436.136C30.6174 515.899 81.4014 588.691 149.87 635.904C196.308 667.925 248.46 687.876 304.957 695.232C322.115 697.466 358.022 698.229 376.439 696.75C529.286 684.482 655.883 574.291 689.271 424.458C697.747 386.417 699.642 339.815 694.277 301.323C672.786 147.137 552.798 26.0664 399.37 3.75643C374.09 0.0804274 350.445 -0.864573 324.812 0.776427ZM1804.16 162.076C1793.76 165.464 1784.72 173.499 1780.04 183.507C1777.72 188.46 1777.38 190.456 1777.38 199.203C1777.37 208.488 1777.61 209.708 1780.61 215.808C1784.52 223.737 1791.67 230.76 1799.65 234.502C1804.74 236.884 1806.54 237.179 1815.87 237.153C1825.76 237.126 1826.74 236.933 1832.72 233.838C1840.54 229.793 1846.86 223.434 1850.56 215.9C1853.12 210.686 1853.37 209.213 1853.37 199.182C1853.37 189.114 1853.13 187.69 1850.52 182.381C1846.88 174.957 1839.87 167.975 1832.32 164.245C1827.31 161.774 1824.94 161.26 1817.37 161.005C1811.66 160.814 1806.83 161.205 1804.16 162.076ZM1960.34 176.057C1936.17 180.03 1920.14 191.166 1910.49 210.682C1904.65 222.499 1902.17 233.984 1901.24 253.405L1900.57 267.629L1886.47 267.905L1872.37 268.182V294.682V321.182L1886.62 321.459L1900.87 321.737V415.087C1900.87 492.938 1901.1 508.626 1902.24 509.575C1903.21 510.382 1912.15 510.636 1932.99 510.447L1962.37 510.182L1962.63 415.932L1962.88 321.682H1987.93H2012.98L2015.3 326.932C2024.44 347.649 2089.87 505.794 2089.87 507.179C2089.87 509.65 2083.63 519.589 2079.69 523.381C2074.75 528.14 2069.64 529.897 2060.91 529.835C2053.11 529.779 2042.83 527.215 2035.54 523.51C2027.98 519.664 2027.83 519.824 2017.27 543.097C2012.05 554.601 2007.91 564.951 2008.07 566.097C2008.72 570.659 2031.16 579.569 2048.62 582.201C2072.93 585.865 2094.27 582.51 2109.25 572.67C2121.71 564.484 2130.32 553.741 2140.11 534.182C2144.27 525.854 2242.87 273.624 2242.87 271.293C2242.87 271.035 2242.16 270.118 2241.3 269.253C2239.94 267.896 2235.73 267.682 2210.37 267.682C2187.02 267.682 2180.74 267.959 2179.69 269.034C2178.97 269.778 2165.55 307.104 2149.87 351.982C2134.2 396.859 2121.09 433.263 2120.74 432.88C2120.39 432.496 2106.08 395.517 2088.93 350.705C2071.78 305.892 2057.22 268.887 2056.56 268.47C2055.91 268.054 2034.27 267.706 2008.47 267.697L1961.57 267.682L1962.2 258.932C1963.07 246.706 1965.15 240.402 1969.87 235.682C1978.12 227.434 1992.67 226.518 2014.6 232.868C2025.46 236.012 2024.96 237.293 2024.64 207.296L2024.37 182.182L2019.1 180.434C2004.94 175.736 1975.59 173.549 1960.34 176.057ZM336.87 185.682C424.666 190.953 503.403 209.893 564.29 240.385C589.081 252.8 596.461 258.241 600.997 267.446C604.428 274.409 604.391 288.108 600.922 295.156C595.703 305.762 585.585 312.575 573.761 313.445C565.319 314.065 562.483 313.116 545.87 304.103C503.258 280.986 450.724 264.815 390.37 256.238C312.198 245.128 224.379 248.79 160.87 265.806C154.545 267.501 147.345 269.309 144.87 269.825C132.525 272.398 117.404 264.534 111.151 252.29C105.445 241.117 107.403 226.038 115.798 216.501C121.501 210.022 127.675 207.199 146.984 202.242C181.168 193.466 216.358 188.146 255.87 185.783C275.687 184.597 317.931 184.545 336.87 185.682ZM902.542 188.187C857.768 195.465 827.029 221.261 817.704 259.381C814.995 270.456 814.724 292.268 817.157 303.36C821.77 324.384 832.746 340.146 851.089 352.09C867.404 362.714 886.74 370.005 922.886 379.164C947.031 385.282 960.615 389.535 968.37 393.406C983.317 400.868 989.238 409.145 989.238 422.576C989.238 428.739 988.736 431.249 986.615 435.69C983.503 442.205 981.87 444.168 975.557 448.987C960.391 460.564 926.271 461.922 896.962 452.115C880.263 446.527 861.875 435.773 846.684 422.711C844.059 420.454 840.955 418.682 839.625 418.682C837.765 418.682 833.539 423.104 820.061 439.156C810.606 450.417 802.87 460.49 802.87 461.54C802.87 463.781 807.806 468.419 819.118 476.806C844.076 495.311 873.115 507.516 904.87 512.847C919.734 515.342 948.64 515.832 961.37 513.806C1007.46 506.468 1036.99 483.493 1048.57 445.979C1051.1 437.752 1051.28 435.952 1051.33 418.182C1051.37 400.968 1051.15 398.48 1049.03 391.717C1041.37 367.341 1026.77 352.037 998.37 338.62C984.844 332.231 971.662 327.879 944.37 320.792C907.553 311.233 893.824 305.616 885.487 296.703C875.124 285.624 875.321 268.915 885.952 257.283C894.577 247.846 907.054 243.367 924.87 243.313C948.92 243.239 971.974 250.99 997.244 267.645C1003.95 272.066 1008.9 274.676 1010.21 274.487C1012.97 274.09 1043.05 232.107 1042.64 229.214C1042.27 226.548 1029.8 217.123 1016.93 209.784C999.7 199.956 979.898 192.809 959.87 189.19C946.758 186.82 914.432 186.255 902.542 188.187ZM1635.44 204.253C1634.08 205.614 1633.87 209.97 1633.87 236.753V267.682H1619.91C1607.12 267.682 1605.85 267.846 1604.91 269.616C1604.28 270.79 1603.87 280.649 1603.87 294.682C1603.87 308.715 1604.28 318.574 1604.91 319.748C1605.85 321.518 1607.12 321.682 1619.84 321.682H1633.75L1634.14 389.932C1634.58 466.435 1634.52 465.649 1641.92 481.505C1648.87 496.371 1661.66 506.739 1679.41 511.876C1686.53 513.939 1689.37 514.174 1706.37 514.109C1722.71 514.047 1726.49 513.728 1733.37 511.837C1743.12 509.157 1756.66 502.94 1757.94 500.559C1758.45 499.599 1758.87 488.691 1758.87 476.319C1758.87 456.754 1758.66 453.61 1757.22 452.176C1756.31 451.269 1754.85 450.757 1753.97 451.039C1753.09 451.321 1748.32 452.996 1743.37 454.761C1727.11 460.561 1709.16 459.771 1702.65 452.969C1696.22 446.259 1696.4 448.213 1696.08 381.946L1695.8 321.711L1727.08 321.446L1758.37 321.182V294.682V268.182L1727.12 267.918L1695.87 267.654V236.368C1695.87 213.368 1695.55 204.764 1694.67 203.882C1693.79 203.005 1685.86 202.682 1665.24 202.682C1640.91 202.682 1636.8 202.899 1635.44 204.253ZM1192.61 264.265C1172.88 267.832 1154.18 278.024 1140.46 292.686C1137.89 295.434 1135.58 297.682 1135.33 297.682C1135.08 297.682 1134.87 291.472 1134.87 283.882C1134.87 274.482 1134.49 269.699 1133.67 268.882C1131.96 267.169 1075.78 267.169 1074.07 268.882C1073.15 269.805 1072.87 305.799 1072.87 424.811C1072.87 564.14 1073.03 579.696 1074.44 581.111C1075.79 582.463 1079.85 582.682 1103.51 582.682C1120.55 582.682 1131.74 582.288 1132.94 581.647C1134.81 580.645 1134.87 579.032 1134.87 531.546V482.481L1140.62 487.753C1154.21 500.214 1169.25 508.808 1184.37 512.763C1195.75 515.738 1216.32 516.436 1228.87 514.273C1277.71 505.859 1312.9 469.365 1322.02 417.684C1324.61 403.007 1324.85 377.584 1322.53 363.67C1315.68 322.551 1294.12 291.517 1260.64 274.591C1239.91 264.108 1214.67 260.276 1192.61 264.265ZM1452.51 263.749C1410.03 269.624 1373.38 295.46 1354.76 332.656C1335.47 371.206 1337.04 418.362 1358.83 454.617C1377.95 486.426 1408.37 507.154 1446.37 514.271C1458.43 516.529 1481.23 516.537 1493.87 514.287C1556.52 503.138 1599.86 451.982 1599.86 389.182C1599.86 327.889 1558.56 277.915 1497.37 265.157C1487.88 263.179 1462.41 262.379 1452.51 263.749ZM2282.66 267.784C2262.44 269.999 2247.26 290.847 2250.85 311.465C2253.74 328.104 2265.41 339.802 2281.98 342.688C2298.38 345.543 2315.22 336.859 2322.65 321.715C2325.11 316.713 2325.37 315.126 2325.37 305.182C2325.37 295.142 2325.12 293.681 2322.55 288.443C2315.25 273.566 2300.34 265.848 2282.66 267.784ZM1785.34 268.917C1785.07 269.613 1784.97 324.182 1785.11 390.182L1785.37 510.182H1815.37H1845.37V389.182V268.182L1815.59 267.917C1792.31 267.71 1785.71 267.928 1785.34 268.917ZM2301.36 273.764C2308.1 276.286 2315.52 283.222 2318.84 290.111C2322.05 296.76 2322.77 308.41 2320.43 315.837C2317.22 326.057 2308.38 334.933 2298.43 337.932C2296.2 338.605 2291.22 339.135 2287.37 339.11C2257.85 338.918 2243.35 302.153 2264.46 281.039C2274.28 271.215 2287.56 268.599 2301.36 273.764ZM2272.87 304.182V323.682H2276.87H2280.87V317.125V310.567L2285.09 310.875C2289.02 311.161 2289.62 311.616 2293.67 317.432C2297.89 323.502 2298.15 323.682 2302.44 323.682C2304.88 323.682 2306.87 323.45 2306.87 323.166C2306.87 322.883 2304.85 319.868 2302.37 316.466C2299.9 313.065 2297.87 309.912 2297.87 309.46C2297.87 309.009 2299.03 308.111 2300.45 307.466C2305.51 305.16 2307.48 296.685 2304.35 290.649C2301.81 285.729 2298.4 284.682 2284.92 284.682H2272.87V304.182ZM2293.73 291.782C2296.91 292.893 2298.4 295.71 2297.7 299.328C2297.18 302.034 2293.05 303.651 2286.62 303.667L2280.87 303.682V297.182V290.682H2285.72C2288.39 290.682 2291.99 291.177 2293.73 291.782ZM340.815 307.166C403.216 313.437 460.317 329.102 510.37 353.682C546.952 371.646 553.676 377.532 554.684 392.475C555.609 406.188 546.845 417.431 532.765 420.594C525.672 422.188 519.743 420.372 505.379 412.206C455.188 383.67 394.042 366.068 326.475 360.705C309.94 359.393 267.886 359.403 252.37 360.724C223.917 363.145 197.663 367.653 173.772 374.219C166.843 376.124 159.611 377.682 157.7 377.682C147.065 377.682 135.384 368.697 132.321 358.161C128.521 345.089 134.717 331.892 147.397 326.054C154.742 322.672 185.187 315.214 205.623 311.79C221.437 309.141 245.296 306.414 262.37 305.304C275.1 304.477 326.104 305.687 340.815 307.166ZM1212.41 319.214C1230.68 323.908 1245 335.673 1253.14 352.682C1259.75 366.484 1261.28 373.497 1261.2 389.682C1261.12 405.686 1259.13 414.606 1252.73 427.624C1245.1 443.145 1230.57 454.806 1213.41 459.167C1205.77 461.108 1190.99 461.111 1183.33 459.173C1165.81 454.739 1150.72 442.34 1142.52 425.639C1135.7 411.749 1134.37 405.795 1134.39 389.182C1134.4 377.697 1134.81 373.781 1136.65 367.383C1145.4 336.938 1168.84 317.947 1197.91 317.742C1202.61 317.709 1209.13 318.371 1212.41 319.214ZM1487.37 320.207C1498.84 323.199 1507.65 328.392 1516.95 337.646C1523.82 344.479 1526.36 347.878 1529.71 354.682C1535.62 366.716 1537.87 376.506 1537.87 390.182C1537.87 403.814 1535.62 413.647 1529.78 425.532C1510.03 465.706 1455.11 473.814 1423.37 441.24C1408.55 426.032 1400.98 402.481 1403.72 380.155C1407.76 347.307 1428.6 324.193 1459.11 318.726C1465.95 317.501 1479.77 318.226 1487.37 320.207ZM343.87 421.1C387.052 426.177 423.401 435.817 459.87 451.864C474.325 458.224 495.686 469.59 502.593 474.595C513.722 482.66 514.575 498.168 504.406 507.542C495.365 515.876 487.566 515.565 471.487 506.23C431.017 482.735 384.663 468.572 331.87 463.573C313.761 461.858 270.773 462.144 250.37 464.116C229.018 466.179 205.231 469.81 183.583 474.312C167.118 477.736 166.692 477.772 161.341 476.217C151.911 473.475 145.87 465.427 145.87 455.607C145.87 447.45 150.299 440.105 157.246 436.742C167.6 431.73 221.733 422.675 258.87 419.744C276.024 418.391 327.855 419.217 343.87 421.1Z" fill="#1ED760"/>
</svg>
